<?xml version="1.0" encoding="utf-8"?>
<!-- Generator: Adobe Illustrator 27.0.0, SVG Export Plug-In . SVG Version: 6.00 Build 0)  -->
<svg version="1.1" xmlns="http://www.w3.org/2000/svg" xmlns:xlink="http://www.w3.org/1999/xlink" x="0px" y="0px"
	 viewBox="0 0 800 800" style="enable-background:new 0 0 800 800;" xml:space="preserve">
<style type="text/css">
	.st0{opacity:0.6;fill:#8F0600;}
	.st1{opacity:0.9;fill:url(#SVGID_1_);}
	.st2{opacity:0.9;fill:url(#SVGID_00000008131977846749300690000001273145976696372135_);}
	.st3{fill-rule:evenodd;clip-rule:evenodd;fill:url(#SVGID_00000173133537744000077000000008668571856815063441_);}
	.st4{fill-rule:evenodd;clip-rule:evenodd;fill:url(#SVGID_00000067215081461015207990000012568952311305856914_);}
	.st5{fill-rule:evenodd;clip-rule:evenodd;fill:url(#SVGID_00000075133373404694638620000009659530752134730923_);}
	.st6{opacity:0.4;fill-rule:evenodd;clip-rule:evenodd;fill:url(#SVGID_00000114048503254649720170000009473183369185934265_);}
	.st7{opacity:0.6;}
	.st8{opacity:0.3;}
	.st9{fill:url(#SVGID_00000071555910878619678290000010872521989011877775_);}
	.st10{fill:url(#SVGID_00000095320137247315774460000017581959352906578868_);}
	.st11{fill:url(#SVGID_00000150790677431695377660000003696208461028380605_);}
	.st12{fill:url(#SVGID_00000139981549670565322400000001711256886258560675_);}
	.st13{fill:url(#SVGID_00000042013710097102728040000000029716394579225759_);}
	.st14{fill:url(#SVGID_00000042705310090649409780000007101021503414709156_);}
	.st15{fill:url(#SVGID_00000057147014128540915210000003734158110107495093_);}
	.st16{fill:url(#SVGID_00000138554657007755394800000012150893324090368951_);}
	.st17{fill:url(#SVGID_00000052091995022933398290000010453387630610339224_);}
	.st18{fill:url(#SVGID_00000168076798495770104090000002756116474417908112_);}
	.st19{fill:url(#SVGID_00000065054554014897146330000001371634252025043620_);}
	.st20{fill:url(#SVGID_00000140728334425173667020000007971585683471896509_);}
	.st21{fill:url(#SVGID_00000176759040223736898580000016391195637703981198_);}
	.st22{fill:url(#SVGID_00000157285442360761043320000001896213145706971310_);}
	.st23{fill:url(#SVGID_00000177447811083788286850000009907167800320161962_);}
	.st24{fill:url(#SVGID_00000059271666592955649650000011215313312153230493_);}
	.st25{fill:url(#SVGID_00000138535399229652621900000003254959809009784758_);}
	.st26{opacity:0.2;fill:url(#SVGID_00000003785621431547440460000017858644630259345080_);}
	.st27{opacity:0.2;fill:url(#SVGID_00000070810036064666405340000010620709788773342084_);}
	.st28{opacity:0.2;fill:url(#SVGID_00000152225831465119101750000012556578604006169531_);}
	.st29{opacity:0.2;fill:url(#SVGID_00000137820634964734892240000002568434805702463899_);}
	.st30{opacity:0.2;fill:url(#SVGID_00000083078800773686877070000014240991229814761097_);}
	.st31{opacity:0.2;fill:url(#SVGID_00000072971055072383632700000006621277374187910278_);}
	.st32{opacity:0.2;fill:url(#SVGID_00000123423898080640200780000004319466167156816794_);}
	.st33{opacity:0.2;fill:url(#SVGID_00000096744047976671052580000005781422041562005894_);}
	.st34{opacity:0.2;fill:url(#SVGID_00000039847711201077435430000002747526123747090615_);}
	.st35{opacity:0.2;fill:url(#SVGID_00000119829179217586082080000008956702126994103699_);}
	.st36{opacity:0.2;fill:url(#SVGID_00000170245824451417611970000017348101671959786404_);}
	.st37{opacity:0.2;fill:url(#SVGID_00000117636637174720821730000013891080176188711812_);}
	.st38{opacity:0.2;fill:url(#SVGID_00000127734446525669749180000017860677061180539524_);}
	.st39{opacity:0.2;fill:url(#SVGID_00000123403720775597702950000001943308136797587614_);}
	.st40{opacity:0.2;fill:url(#SVGID_00000000201257139847849720000010423031424214728619_);}
	.st41{opacity:0.2;fill:url(#SVGID_00000039126931683185033080000012142206973874217151_);}
	.st42{opacity:0.2;fill:url(#SVGID_00000075120999061669207610000002112749445232228265_);}
	.st43{opacity:0.2;fill:url(#SVGID_00000057130963901724019240000000159442944679045006_);}
	.st44{opacity:0.2;fill:url(#SVGID_00000171692102891132158580000006078045569406644650_);}
	.st45{opacity:0.2;fill:url(#SVGID_00000116233714573868711180000001177421633550543003_);}
	.st46{opacity:0.2;fill:url(#SVGID_00000092442058205519741430000003959978435516559019_);}
	.st47{opacity:0.3;fill:url(#SVGID_00000040542870200650333420000003719784797866130591_);}
	.st48{opacity:0.3;fill:url(#SVGID_00000090281426946111089170000005204838876850873246_);}
	.st49{opacity:0.5;fill:url(#SVGID_00000061467644321549493290000010532555381152627094_);}
	.st50{fill:url(#SVGID_00000001638694880584598460000008173566356200747413_);}
	.st51{fill:url(#SVGID_00000052091154072897575900000011977000741734599073_);}
	.st52{opacity:0.2;fill:url(#SVGID_00000093159600914835448890000003810189900797477004_);}
	.st53{opacity:0.2;fill:url(#SVGID_00000114035827397974057000000009602333885090325911_);}
	.st54{opacity:0.2;fill:url(#SVGID_00000146478354053694728000000002796344560533468344_);}
	.st55{opacity:0.2;fill:url(#SVGID_00000049935315975160354830000000022310900773193860_);}
	.st56{opacity:0.2;fill:url(#SVGID_00000101804159632656881990000008783355183093843647_);}
	.st57{opacity:0.2;fill:url(#SVGID_00000135681937076555329150000011721838441409828484_);}
	.st58{opacity:0.2;fill:url(#SVGID_00000145767463804628602200000004526346678226473916_);}
	.st59{opacity:0.3;fill:url(#SVGID_00000100353930326102406670000006603574151800480430_);}
	.st60{opacity:0.3;fill:url(#SVGID_00000159468964144995208910000003716595189951017104_);}
	.st61{opacity:0.6;fill:url(#SVGID_00000140700959292017735100000002224136553167764868_);}
	.st62{opacity:0.3;fill:url(#SVGID_00000010302860043485675590000017447488740774316732_);}
	.st63{opacity:0.7;fill:url(#SVGID_00000060749420604428193640000008660643298397488798_);}
	.st64{fill-rule:evenodd;clip-rule:evenodd;fill:none;}
	.st65{opacity:0.9;}
	.st66{fill:#FCFFF8;}
</style>
<g id="Background">
	<g>
		<rect x="-4.06" y="-4.06" class="st0" width="808.13" height="808.13"/>
		<rect x="-4.06" y="-4.06" class="st0" width="808.13" height="808.13"/>
		<g>
			
				<linearGradient id="SVGID_1_" gradientUnits="userSpaceOnUse" x1="-22.0508" y1="308.1081" x2="786.0771" y2="308.1081" gradientTransform="matrix(0 1 -1 0 708.1074 18.4971)">
				<stop  offset="0" style="stop-color:#C68BB6;stop-opacity:0"/>
				<stop  offset="0.1737" style="stop-color:#BE6CB2;stop-opacity:0.1737"/>
				<stop  offset="0.4207" style="stop-color:#B545AD;stop-opacity:0.4207"/>
				<stop  offset="0.649" style="stop-color:#AE2AAA;stop-opacity:0.649"/>
				<stop  offset="0.8493" style="stop-color:#AA19A8;stop-opacity:0.8493"/>
				<stop  offset="1" style="stop-color:#A913A7"/>
			</linearGradient>
			<rect x="-4.07" y="-3.55" class="st1" width="808.13" height="808.13"/>
			
				<linearGradient id="SVGID_00000119838261613296464340000003160711040130651049_" gradientUnits="userSpaceOnUse" x1="-100.0971" y1="416.3394" x2="708.0603" y2="416.3394" gradientTransform="matrix(-1 1.300000e-03 -1.300000e-03 -1 704.5221 815.9447)">
				<stop  offset="0" style="stop-color:#C68BB6;stop-opacity:0"/>
				<stop  offset="0.1501" style="stop-color:#C371A3;stop-opacity:0.1512"/>
				<stop  offset="0.402" style="stop-color:#C04A88;stop-opacity:0.405"/>
				<stop  offset="0.6347" style="stop-color:#BD2F74;stop-opacity:0.6394"/>
				<stop  offset="0.839" style="stop-color:#BC1E68;stop-opacity:0.8452"/>
				<stop  offset="0.9927" style="stop-color:#BB1864"/>
			</linearGradient>
			<polygon style="opacity:0.9;fill:url(#SVGID_00000119838261613296464340000003160711040130651049_);" points="-4.58,-3.55 
				803.55,-4.57 804.58,803.55 -3.55,804.57 			"/>
		</g>
		
		<linearGradient id="SVGID_00000062159284633290478620000016857292884739575202_" gradientUnits="userSpaceOnUse" x1="-3.583" y1="393.5938" x2="805.5689" y2="393.5938" gradientTransform="matrix(-1 0 0 -1 800.9932 793.5938)">
			<stop  offset="8.278920e-03" style="stop-color:#A2D770;stop-opacity:0.1"/>
			<stop  offset="0.2327" style="stop-color:#A8C264;stop-opacity:0.3037"/>
			<stop  offset="0.7411" style="stop-color:#B3974C;stop-opacity:0.765"/>
			<stop  offset="1" style="stop-color:#B88643"/>
		</linearGradient>
		
			<rect x="-4.58" y="-3.55" style="fill-rule:evenodd;clip-rule:evenodd;fill:url(#SVGID_00000062159284633290478620000016857292884739575202_);" width="809.15" height="807.11"/>
		
		<linearGradient id="SVGID_00000072963043900904247940000005543107969950504604_" gradientUnits="userSpaceOnUse" x1="-0.877" y1="397.2942" x2="808.2754" y2="397.2942" gradientTransform="matrix(0 1 -1 0 797.2939 -3.6992)">
			<stop  offset="8.278920e-03" style="stop-color:#A2D770;stop-opacity:0.1"/>
			<stop  offset="0.3299" style="stop-color:#A3B456;stop-opacity:0.3919"/>
			<stop  offset="0.7738" style="stop-color:#A48935;stop-opacity:0.7947"/>
			<stop  offset="1" style="stop-color:#A57829"/>
		</linearGradient>
		
		<rect x="-3.55" y="-4.58" style="fill-rule:evenodd;clip-rule:evenodd;fill:url(#SVGID_00000072963043900904247940000005543107969950504604_);" width="807.11" height="809.15"/>
		
		<linearGradient id="SVGID_00000119078820750325561020000009891097988408270263_" gradientUnits="userSpaceOnUse" x1="806.3038" y1="-16.6703" x2="-6.1715" y2="795.805" gradientTransform="matrix(-1 0 0 -1 800.1299 790.5488)">
			<stop  offset="8.278920e-03" style="stop-color:#A2D770;stop-opacity:0"/>
			<stop  offset="0.3674" style="stop-color:#A0D670;stop-opacity:0.3621"/>
			<stop  offset="0.5186" style="stop-color:#99D072;stop-opacity:0.5146"/>
			<stop  offset="0.6308" style="stop-color:#8CC774;stop-opacity:0.6277"/>
			<stop  offset="0.7237" style="stop-color:#7BBA77;stop-opacity:0.7214"/>
			<stop  offset="0.8046" style="stop-color:#64A97C;stop-opacity:0.803"/>
			<stop  offset="0.8773" style="stop-color:#479481;stop-opacity:0.8762"/>
			<stop  offset="0.9422" style="stop-color:#267C87;stop-opacity:0.9417"/>
			<stop  offset="1" style="stop-color:#02618E"/>
		</linearGradient>
		
		<polygon style="fill-rule:evenodd;clip-rule:evenodd;fill:url(#SVGID_00000119078820750325561020000009891097988408270263_);" points="
			-4.38,-6.78 804.77,-6.78 806.61,806.64 -6.61,806.78 		"/>
		
		<linearGradient id="SVGID_00000159465338498607251490000008627973818427058077_" gradientUnits="userSpaceOnUse" x1="804.6042" y1="-4.829" x2="-9.6475" y2="809.4227" gradientTransform="matrix(1 0 0 1 3.0439 -0.8564)">
			<stop  offset="8.278920e-03" style="stop-color:#A2D770;stop-opacity:0"/>
			<stop  offset="0.429" style="stop-color:#A0D671;stop-opacity:0.4242"/>
			<stop  offset="0.6061" style="stop-color:#99D375;stop-opacity:0.6028"/>
			<stop  offset="0.7375" style="stop-color:#8CCF7C;stop-opacity:0.7353"/>
			<stop  offset="0.8462" style="stop-color:#7BC886;stop-opacity:0.845"/>
			<stop  offset="0.9399" style="stop-color:#64BF93;stop-opacity:0.9394"/>
			<stop  offset="1" style="stop-color:#51B89E"/>
		</linearGradient>
		
			<polygon style="opacity:0.4;fill-rule:evenodd;clip-rule:evenodd;fill:url(#SVGID_00000159465338498607251490000008627973818427058077_);" points="
			806.9,805.15 -6.9,808.27 -6.32,-1.81 805.06,-8.27 		"/>
		<g>
			<g>
				<g class="st7">
					<g class="st8">
						<g>
							
								<linearGradient id="SVGID_00000147220173553569402910000005538592568272125078_" gradientUnits="userSpaceOnUse" x1="889.4502" y1="365.1055" x2="1092.4951" y2="365.1055" gradientTransform="matrix(-0.5829 0.8125 -0.8125 -0.5829 846.5441 242.7697)">
								<stop  offset="0" style="stop-color:#000000;stop-opacity:0"/>
								<stop  offset="0.9951" style="stop-color:#FFFFFF"/>
							</linearGradient>
							<polygon style="fill:url(#SVGID_00000147220173553569402910000005538592568272125078_);" points="31.08,806.54 16.51,741.92 
								-8.04,754.23 -8.04,806.54 							"/>
							
								<linearGradient id="SVGID_00000159434545053534012360000007354968720450729630_" gradientUnits="userSpaceOnUse" x1="579.2563" y1="159.6854" x2="835.8807" y2="159.6854" gradientTransform="matrix(-0.5829 0.8125 -0.8125 -0.5829 846.5441 242.7697)">
								<stop  offset="0" style="stop-color:#000000;stop-opacity:0"/>
								<stop  offset="0.9951" style="stop-color:#FFFFFF"/>
							</linearGradient>
							<polygon style="fill:url(#SVGID_00000159434545053534012360000007354968720450729630_);" points="520.98,806.54 
								507.04,728.94 197.32,489.89 399.28,806.54 							"/>
							
								<linearGradient id="SVGID_00000067202182815799269740000000715591106558510511_" gradientUnits="userSpaceOnUse" x1="381.2784" y1="-204.3203" x2="835.8804" y2="-204.3203" gradientTransform="matrix(-0.5829 0.8125 -0.8125 -0.5829 846.5441 242.7697)">
								<stop  offset="0" style="stop-color:#000000;stop-opacity:0"/>
								<stop  offset="0.9951" style="stop-color:#FFFFFF"/>
							</linearGradient>
							<polygon style="fill:url(#SVGID_00000067202182815799269740000000715591106558510511_);" points="757.18,806.54 
								748.29,641.51 679.46,806.54 							"/>
							
								<linearGradient id="SVGID_00000067957070042593231490000016007299891952131717_" gradientUnits="userSpaceOnUse" x1="509.4563" y1="514.0672" x2="713.2731" y2="514.0672" gradientTransform="matrix(-0.5829 0.8125 -0.8125 -0.5829 846.5441 242.7697)">
								<stop  offset="0" style="stop-color:#000000;stop-opacity:0"/>
								<stop  offset="0.9951" style="stop-color:#FFFFFF"/>
							</linearGradient>
							<polygon style="fill:url(#SVGID_00000067957070042593231490000016007299891952131717_);" points="-8.04,436.58 
								197.32,489.89 53.64,300.9 -8.04,328.09 							"/>
							
								<linearGradient id="SVGID_00000118388958411402766200000005115622517773456803_" gradientUnits="userSpaceOnUse" x1="106.3801" y1="260.495" x2="579.2563" y2="260.495" gradientTransform="matrix(-0.5829 0.8125 -0.8125 -0.5829 846.5441 242.7697)">
								<stop  offset="0" style="stop-color:#000000;stop-opacity:0"/>
								<stop  offset="0.9951" style="stop-color:#FFFFFF"/>
							</linearGradient>
							<polygon style="fill:url(#SVGID_00000118388958411402766200000005115622517773456803_);" points="529.05,449.42 
								197.32,489.89 604.13,199.78 							"/>
							
								<linearGradient id="SVGID_00000029740081840888681660000012083559362993310340_" gradientUnits="userSpaceOnUse" x1="219.8328" y1="575.4268" x2="579.2578" y2="575.4268" gradientTransform="matrix(-0.5829 0.8125 -0.8125 -0.5829 846.5441 242.7697)">
								<stop  offset="0" style="stop-color:#000000;stop-opacity:0"/>
								<stop  offset="0.9951" style="stop-color:#FFFFFF"/>
							</linearGradient>
							<polygon style="fill:url(#SVGID_00000029740081840888681660000012083559362993310340_);" points="81,-6.54 197.32,489.89 
								234.05,86.01 117.26,-6.54 							"/>
							
								<linearGradient id="SVGID_00000063591427308096040420000006612367004764463232_" gradientUnits="userSpaceOnUse" x1="-117.7573" y1="423.6151" x2="579.2587" y2="423.6151" gradientTransform="matrix(-0.5829 0.8125 -0.8125 -0.5829 846.5441 242.7697)">
								<stop  offset="0" style="stop-color:#000000;stop-opacity:0"/>
								<stop  offset="0.9951" style="stop-color:#FFFFFF"/>
							</linearGradient>
							<polygon style="fill:url(#SVGID_00000063591427308096040420000006612367004764463232_);" points="415.3,-6.54 197.32,489.89 
								478.98,152.16 481.39,-6.54 							"/>
							
								<linearGradient id="SVGID_00000017512746547767525800000014632663852557535643_" gradientUnits="userSpaceOnUse" x1="106.3801" y1="34.7139" x2="381.2784" y2="34.7139" gradientTransform="matrix(-0.5829 0.8125 -0.8125 -0.5829 846.5441 242.7697)">
								<stop  offset="0" style="stop-color:#000000;stop-opacity:0"/>
								<stop  offset="0.9951" style="stop-color:#FFFFFF"/>
							</linearGradient>
							<polygon style="fill:url(#SVGID_00000017512746547767525800000014632663852557535643_);" points="748.29,641.51 
								604.13,199.78 800.84,394.53 							"/>
							
								<linearGradient id="SVGID_00000091730647054339255350000003369925125957937298_" gradientUnits="userSpaceOnUse" x1="-125.8714" y1="215.5667" x2="106.3801" y2="215.5667" gradientTransform="matrix(-0.5829 0.8125 -0.8125 -0.5829 846.5441 242.7697)">
								<stop  offset="0" style="stop-color:#000000;stop-opacity:0"/>
								<stop  offset="0.9951" style="stop-color:#FFFFFF"/>
							</linearGradient>
							<polygon style="fill:url(#SVGID_00000091730647054339255350000003369925125957937298_);" points="808.04,60.24 714.96,-6.54 
								538.83,-6.54 604.13,199.78 808.04,235.09 							"/>
						</g>
						<g>
							
								<linearGradient id="SVGID_00000133486730024935068820000017014973576739845022_" gradientUnits="userSpaceOnUse" x1="636.9915" y1="226.2643" x2="893.6094" y2="226.2643" gradientTransform="matrix(-0.5829 0.8125 -0.8125 -0.5829 846.5441 242.7697)">
								<stop  offset="0" style="stop-color:#000000;stop-opacity:0"/>
								<stop  offset="0.9951" style="stop-color:#FFFFFF"/>
							</linearGradient>
							<polygon style="fill:url(#SVGID_00000133486730024935068820000017014973576739845022_);" points="-8.04,716.98 457.77,747.8 
								145.89,524.04 -8.04,694.56 							"/>
							
								<linearGradient id="SVGID_00000080892423611899264380000004870683657055038354_" gradientUnits="userSpaceOnUse" x1="687.86" y1="233.0503" x2="944.4879" y2="233.0503" gradientTransform="matrix(-0.5829 0.8125 -0.8125 -0.5829 846.5441 242.7697)">
								<stop  offset="0" style="stop-color:#000000;stop-opacity:0"/>
								<stop  offset="0.9951" style="stop-color:#FFFFFF"/>
							</linearGradient>
							<polygon style="fill:url(#SVGID_00000080892423611899264380000004870683657055038354_);" points="404.79,806.54 
								401.22,786.68 91.51,547.63 256.64,806.54 							"/>
							
								<linearGradient id="SVGID_00000104682560676026481760000017327566077636279936_" gradientUnits="userSpaceOnUse" x1="489.8836" y1="-133.9058" x2="944.4866" y2="-133.9058" gradientTransform="matrix(-0.5829 0.8125 -0.8125 -0.5829 846.5441 242.7697)">
								<stop  offset="0" style="stop-color:#000000;stop-opacity:0"/>
								<stop  offset="0.9951" style="stop-color:#FFFFFF"/>
							</linearGradient>
							<polygon style="fill:url(#SVGID_00000104682560676026481760000017327566077636279936_);" points="648.26,806.54 
								642.47,699.26 597.73,806.54 							"/>
							
								<linearGradient id="SVGID_00000127733562868023587370000004858459079708244918_" gradientUnits="userSpaceOnUse" x1="214.9846" y1="312.8161" x2="687.86" y2="312.8161" gradientTransform="matrix(-0.5829 0.8125 -0.8125 -0.5829 846.5441 242.7697)">
								<stop  offset="0" style="stop-color:#000000;stop-opacity:0"/>
								<stop  offset="0.9951" style="stop-color:#FFFFFF"/>
							</linearGradient>
							<polygon style="fill:url(#SVGID_00000127733562868023587370000004858459079708244918_);" points="423.24,507.16 
								91.51,547.63 498.31,257.52 							"/>
							
								<linearGradient id="SVGID_00000114039788598173144660000017785646802779256456_" gradientUnits="userSpaceOnUse" x1="328.4378" y1="625.4351" x2="687.8608" y2="625.4351" gradientTransform="matrix(-0.5829 0.8125 -0.8125 -0.5829 846.5441 242.7697)">
								<stop  offset="0" style="stop-color:#000000;stop-opacity:0"/>
								<stop  offset="0.9951" style="stop-color:#FFFFFF"/>
							</linearGradient>
							<polygon style="fill:url(#SVGID_00000114039788598173144660000017785646802779256456_);" points="-8.04,35.76 -8.04,122.78 
								91.51,547.63 128.23,143.75 							"/>
							
								<linearGradient id="SVGID_00000094585745673219537430000003641073078560055450_" gradientUnits="userSpaceOnUse" x1="-9.1534" y1="482.4657" x2="687.8582" y2="482.4657" gradientTransform="matrix(-0.5829 0.8125 -0.8125 -0.5829 846.5441 242.7697)">
								<stop  offset="0" style="stop-color:#000000;stop-opacity:0"/>
								<stop  offset="0.9951" style="stop-color:#FFFFFF"/>
							</linearGradient>
							<polygon style="fill:url(#SVGID_00000094585745673219537430000003641073078560055450_);" points="334.84,-6.54 91.51,547.63 
								373.16,209.9 376.45,-6.54 							"/>
							
								<linearGradient id="SVGID_00000137828095331383924830000003942662790624671110_" gradientUnits="userSpaceOnUse" x1="214.9846" y1="87.0347" x2="489.8836" y2="87.0347" gradientTransform="matrix(-0.5829 0.8125 -0.8125 -0.5829 846.5441 242.7697)">
								<stop  offset="0" style="stop-color:#000000;stop-opacity:0"/>
								<stop  offset="0.9951" style="stop-color:#FFFFFF"/>
							</linearGradient>
							<polygon style="fill:url(#SVGID_00000137828095331383924830000003942662790624671110_);" points="642.47,699.26 
								498.31,257.52 695.03,452.27 							"/>
							
								<linearGradient id="SVGID_00000042727335953910519570000007234161085248532618_" gradientUnits="userSpaceOnUse" x1="-17.2684" y1="243.8111" x2="214.9846" y2="243.8111" gradientTransform="matrix(-0.5829 0.8125 -0.8125 -0.5829 846.5441 242.7697)">
								<stop  offset="0" style="stop-color:#000000;stop-opacity:0"/>
								<stop  offset="0.9951" style="stop-color:#FFFFFF"/>
							</linearGradient>
							<polygon style="fill:url(#SVGID_00000042727335953910519570000007234161085248532618_);" points="808.04,193.9 528.66,-6.54 
								414.74,-6.54 498.31,257.52 808.04,311.16 							"/>
						</g>
					</g>
					<g>
						
							<linearGradient id="SVGID_00000036939794644865354110000002135921717005652415_" gradientUnits="userSpaceOnUse" x1="-1.8296" y1="-123.9699" x2="273.0526" y2="-123.9699" gradientTransform="matrix(-0.5829 0.8125 -0.8125 -0.5829 846.5441 242.7697)">
							<stop  offset="0" style="stop-color:#000000;stop-opacity:0"/>
							<stop  offset="0.9951" style="stop-color:#FFFFFF"/>
						</linearGradient>
						<polygon style="opacity:0.2;fill:url(#SVGID_00000036939794644865354110000002135921717005652415_);" points="808.04,501.23 
							804.29,513.69 808.04,516.97 						"/>
						
							<linearGradient id="SVGID_00000131334804460448728120000017298206832839566217_" gradientUnits="userSpaceOnUse" x1="-1.843" y1="55.7935" x2="471.0342" y2="55.7935" gradientTransform="matrix(-0.5829 0.8125 -0.8125 -0.5829 846.5441 242.7697)">
							<stop  offset="0" style="stop-color:#000000;stop-opacity:0"/>
							<stop  offset="0.9951" style="stop-color:#FFFFFF"/>
						</linearGradient>
						<polygon style="opacity:0.2;fill:url(#SVGID_00000131334804460448728120000017298206832839566217_);" points="808.04,236.91 
							754.22,216.43 472.56,554.16 808.04,314.92 						"/>
						
							<linearGradient id="SVGID_00000154387487937570994500000009153203722668555146_" gradientUnits="userSpaceOnUse" x1="111.6099" y1="441.4167" x2="605.0494" y2="441.4167" gradientTransform="matrix(-0.5829 0.8125 -0.8125 -0.5829 846.5441 242.7697)">
							<stop  offset="0" style="stop-color:#000000;stop-opacity:0"/>
							<stop  offset="0.9951" style="stop-color:#FFFFFF"/>
						</linearGradient>
						<polygon style="opacity:0.2;fill:url(#SVGID_00000154387487937570994500000009153203722668555146_);" points="112.31,460.64 
							347.97,22.44 328.88,365.18 						"/>
						
							<linearGradient id="SVGID_00000144318626433094275580000009745096294011606696_" gradientUnits="userSpaceOnUse" x1="111.6099" y1="327.9573" x2="471.0328" y2="327.9573" gradientTransform="matrix(-0.5829 0.8125 -0.8125 -0.5829 846.5441 242.7697)">
							<stop  offset="0" style="stop-color:#000000;stop-opacity:0"/>
							<stop  offset="0.9951" style="stop-color:#FFFFFF"/>
						</linearGradient>
						<polygon style="opacity:0.2;fill:url(#SVGID_00000144318626433094275580000009745096294011606696_);" points="472.56,554.16 
							328.88,365.18 347.97,22.44 						"/>
						
							<linearGradient id="SVGID_00000159464703088528118270000012876307136159659671_" gradientUnits="userSpaceOnUse" x1="-225.9825" y1="225.1574" x2="471.0316" y2="225.1574" gradientTransform="matrix(-0.5829 0.8125 -0.8125 -0.5829 846.5441 242.7697)">
							<stop  offset="0" style="stop-color:#000000;stop-opacity:0"/>
							<stop  offset="0.9951" style="stop-color:#FFFFFF"/>
						</linearGradient>
						<polygon style="opacity:0.2;fill:url(#SVGID_00000159464703088528118270000012876307136159659671_);" points="666.91,-6.54 
							509.29,150.28 472.56,554.16 718.76,-6.54 						"/>
						
							<linearGradient id="SVGID_00000059995866298453950130000009204132266200848775_" gradientUnits="userSpaceOnUse" x1="-234.0976" y1="412.4254" x2="121.4518" y2="412.4254" gradientTransform="matrix(-0.5829 0.8125 -0.8125 -0.5829 846.5441 242.7697)">
							<stop  offset="0" style="stop-color:#000000;stop-opacity:0"/>
							<stop  offset="0.9951" style="stop-color:#FFFFFF"/>
						</linearGradient>
						<polygon style="opacity:0.2;fill:url(#SVGID_00000059995866298453950130000009204132266200848775_);" points="441.66,-6.54 
							347.97,22.44 509.29,150.28 666.91,-6.54 						"/>
						
							<linearGradient id="SVGID_00000137131621912709134210000004948948999794299050_" gradientUnits="userSpaceOnUse" x1="88.5502" y1="407.5524" x2="444.0977" y2="407.5524" gradientTransform="matrix(-0.5829 0.8125 -0.8125 -0.5829 846.5441 242.7697)">
							<stop  offset="0" style="stop-color:#000000;stop-opacity:0"/>
							<stop  offset="0.9951" style="stop-color:#FFFFFF"/>
						</linearGradient>
						<polygon style="opacity:0.2;fill:url(#SVGID_00000137131621912709134210000004948948999794299050_);" points="316.48,409.03 
							155.16,281.19 569.51,153 566.18,160.6 						"/>
						
							<linearGradient id="SVGID_00000162332772998862937710000002020557878948403329_" gradientUnits="userSpaceOnUse" x1="-234.0982" y1="503.9406" x2="111.6099" y2="503.9406" gradientTransform="matrix(-0.5829 0.8125 -0.8125 -0.5829 846.5441 242.7697)">
							<stop  offset="0" style="stop-color:#000000;stop-opacity:0"/>
							<stop  offset="0.9951" style="stop-color:#FFFFFF"/>
						</linearGradient>
						<polygon style="opacity:0.2;fill:url(#SVGID_00000162332772998862937710000002020557878948403329_);" points="374.47,-6.54 
							347.97,22.44 441.66,-6.54 						"/>
						
							<linearGradient id="SVGID_00000096755625896209639270000012464292008501917317_" gradientUnits="userSpaceOnUse" x1="-234.1066" y1="548.2158" x2="111.6099" y2="548.2158" gradientTransform="matrix(-0.5829 0.8125 -0.8125 -0.5829 846.5441 242.7697)">
							<stop  offset="0" style="stop-color:#000000;stop-opacity:0"/>
							<stop  offset="0.9951" style="stop-color:#FFFFFF"/>
						</linearGradient>
						<polygon style="opacity:0.2;fill:url(#SVGID_00000096755625896209639270000012464292008501917317_);" points="332.68,-6.54 
							347.97,22.44 353.09,-6.54 						"/>
						
							<linearGradient id="SVGID_00000029761437371729885700000000416672199647867561_" gradientUnits="userSpaceOnUse" x1="-234.104" y1="689.6812" x2="230.3979" y2="689.6812" gradientTransform="matrix(-0.5829 0.8125 -0.8125 -0.5829 846.5441 242.7697)">
							<stop  offset="0" style="stop-color:#000000;stop-opacity:0"/>
							<stop  offset="0.9951" style="stop-color:#FFFFFF"/>
						</linearGradient>
						<polygon style="opacity:0.2;fill:url(#SVGID_00000029761437371729885700000000416672199647867561_);" points="164.47,-6.54 
							143.85,22.2 188.78,-6.54 						"/>
						
							<linearGradient id="SVGID_00000174592082646551676770000016316983424594658217_" gradientUnits="userSpaceOnUse" x1="62.2194" y1="616.5562" x2="230.3985" y2="616.5562" gradientTransform="matrix(-0.5829 0.8125 -0.8125 -0.5829 846.5441 242.7697)">
							<stop  offset="0" style="stop-color:#000000;stop-opacity:0"/>
							<stop  offset="0.9951" style="stop-color:#FFFFFF"/>
						</linearGradient>
						<polygon style="opacity:0.2;fill:url(#SVGID_00000174592082646551676770000016316983424594658217_);" points="188.78,-6.54 
							143.85,22.2 347.97,22.44 332.68,-6.54 						"/>
						
							<linearGradient id="SVGID_00000047749507449487675770000011660553885695141256_" gradientUnits="userSpaceOnUse" x1="111.6099" y1="616.5562" x2="273.0428" y2="616.5562" gradientTransform="matrix(-0.5829 0.8125 -0.8125 -0.5829 846.5441 242.7697)">
							<stop  offset="0" style="stop-color:#000000;stop-opacity:0"/>
							<stop  offset="0.9951" style="stop-color:#FFFFFF"/>
						</linearGradient>
						<polygon style="opacity:0.2;fill:url(#SVGID_00000047749507449487675770000011660553885695141256_);" points="224.94,132.85 
							143.85,22.2 347.97,22.44 						"/>
						
							<linearGradient id="SVGID_00000159442681831453930250000006557975699809939376_" gradientUnits="userSpaceOnUse" x1="111.6099" y1="519.3805" x2="605.0494" y2="519.3805" gradientTransform="matrix(-0.5829 0.8125 -0.8125 -0.5829 846.5441 242.7697)">
							<stop  offset="0" style="stop-color:#000000;stop-opacity:0"/>
							<stop  offset="0.9951" style="stop-color:#FFFFFF"/>
						</linearGradient>
						<polygon style="opacity:0.2;fill:url(#SVGID_00000159442681831453930250000006557975699809939376_);" points="112.31,460.64 
							224.94,132.85 347.97,22.44 						"/>
						
							<linearGradient id="SVGID_00000039839787776093200150000017321948413644359834_" gradientUnits="userSpaceOnUse" x1="230.3979" y1="650.065" x2="984.2609" y2="650.065" gradientTransform="matrix(-0.5829 0.8125 -0.8125 -0.5829 846.5441 242.7697)">
							<stop  offset="0" style="stop-color:#000000;stop-opacity:0"/>
							<stop  offset="0.9951" style="stop-color:#FFFFFF"/>
						</linearGradient>
						<polygon style="opacity:0.2;fill:url(#SVGID_00000039839787776093200150000017321948413644359834_);" points="-8.04,233.92 
							-8.04,394.11 9.23,379.66 143.85,22.2 						"/>
						
							<linearGradient id="SVGID_00000040575624496578495800000015434129174881926568_" gradientUnits="userSpaceOnUse" x1="230.3979" y1="584.5772" x2="605.0494" y2="584.5772" gradientTransform="matrix(-0.5829 0.8125 -0.8125 -0.5829 846.5441 242.7697)">
							<stop  offset="0" style="stop-color:#000000;stop-opacity:0"/>
							<stop  offset="0.9951" style="stop-color:#FFFFFF"/>
						</linearGradient>
						<polygon style="opacity:0.2;fill:url(#SVGID_00000040575624496578495800000015434129174881926568_);" points="112.31,460.64 
							9.23,379.66 143.85,22.2 						"/>
						
							<linearGradient id="SVGID_00000062182263773958405580000016907984375319382708_" gradientUnits="userSpaceOnUse" x1="599.3363" y1="537.8876" x2="984.2592" y2="537.8876" gradientTransform="matrix(-0.5829 0.8125 -0.8125 -0.5829 846.5441 242.7697)">
							<stop  offset="0" style="stop-color:#000000;stop-opacity:0"/>
							<stop  offset="0.9951" style="stop-color:#FFFFFF"/>
						</linearGradient>
						<polygon style="opacity:0.2;fill:url(#SVGID_00000062182263773958405580000016907984375319382708_);" points="-8.04,512 
							112.31,460.64 9.23,379.66 -8.04,394.11 						"/>
						
							<linearGradient id="SVGID_00000060028451882857545720000000965010293095861409_" gradientUnits="userSpaceOnUse" x1="605.0494" y1="503.5249" x2="984.2625" y2="503.5249" gradientTransform="matrix(-0.5829 0.8125 -0.8125 -0.5829 846.5441 242.7697)">
							<stop  offset="0" style="stop-color:#000000;stop-opacity:0"/>
							<stop  offset="0.9951" style="stop-color:#FFFFFF"/>
						</linearGradient>
						<polygon style="opacity:0.2;fill:url(#SVGID_00000060028451882857545720000000965010293095861409_);" points="-8.04,512 
							-8.04,628.4 112.31,460.64 						"/>
						
							<linearGradient id="SVGID_00000073714830645946704610000001940223969296928164_" gradientUnits="userSpaceOnUse" x1="838.9742" y1="379.6436" x2="984.2666" y2="379.6436" gradientTransform="matrix(-0.5829 0.8125 -0.8125 -0.5829 846.5441 242.7697)">
							<stop  offset="0" style="stop-color:#000000;stop-opacity:0"/>
							<stop  offset="0.9951" style="stop-color:#FFFFFF"/>
						</linearGradient>
						<polygon style="opacity:0.2;fill:url(#SVGID_00000073714830645946704610000001940223969296928164_);" points="42.81,806.54 
							-8.04,688.01 -8.04,806.54 						"/>
						
							<linearGradient id="SVGID_00000101826080755080364210000006279948509050917006_" gradientUnits="userSpaceOnUse" x1="605.0494" y1="376.785" x2="984.2649" y2="376.785" gradientTransform="matrix(-0.5829 0.8125 -0.8125 -0.5829 846.5441 242.7697)">
							<stop  offset="0" style="stop-color:#000000;stop-opacity:0"/>
							<stop  offset="0.9951" style="stop-color:#FFFFFF"/>
						</linearGradient>
						<polygon style="opacity:0.2;fill:url(#SVGID_00000101826080755080364210000006279948509050917006_);" points="92.61,806.54 
							112.31,460.64 -8.04,628.4 -8.04,688.01 42.81,806.54 						"/>
						
							<linearGradient id="SVGID_00000116917661280406887900000007681919565794022332_" gradientUnits="userSpaceOnUse" x1="471.0328" y1="189.2957" x2="984.2665" y2="189.2957" gradientTransform="matrix(-0.5829 0.8125 -0.8125 -0.5829 846.5441 242.7697)">
							<stop  offset="0" style="stop-color:#000000;stop-opacity:0"/>
							<stop  offset="0.9951" style="stop-color:#FFFFFF"/>
						</linearGradient>
						<polygon style="opacity:0.2;fill:url(#SVGID_00000116917661280406887900000007681919565794022332_);" points="198.18,806.54 
							472.56,554.16 240.52,647.95 147.12,806.54 						"/>
						
							<linearGradient id="SVGID_00000080178030711088600390000013483543259887573383_" gradientUnits="userSpaceOnUse" x1="471.0328" y1="31.7888" x2="984.2678" y2="31.7888" gradientTransform="matrix(-0.5829 0.8125 -0.8125 -0.5829 846.5441 242.7697)">
							<stop  offset="0" style="stop-color:#000000;stop-opacity:0"/>
							<stop  offset="0.9951" style="stop-color:#FFFFFF"/>
						</linearGradient>
						<polygon style="opacity:0.2;fill:url(#SVGID_00000080178030711088600390000013483543259887573383_);" points="514.43,806.54 
							472.56,554.16 469.53,568.84 420.46,806.54 						"/>
						
							<linearGradient id="SVGID_00000065043036812356785770000009157039634112961432_" gradientUnits="userSpaceOnUse" x1="7.8382" y1="-70.7856" x2="374.5248" y2="-70.7856" gradientTransform="matrix(-0.5829 0.8125 -0.8125 -0.5829 846.5441 242.7697)">
							<stop  offset="0" style="stop-color:#000000;stop-opacity:0"/>
							<stop  offset="0.9951" style="stop-color:#FFFFFF"/>
						</linearGradient>
						<polygon style="opacity:0.3;fill:url(#SVGID_00000065043036812356785770000009157039634112961432_);" points="808.04,245.45 
							798.49,217.94 643.27,475.67 808.04,631.1 						"/>
						
							<linearGradient id="SVGID_00000150090068983616733040000007014757754477730211_" gradientUnits="userSpaceOnUse" x1="-292.2049" y1="208.0912" x2="-35.5765" y2="208.0912" gradientTransform="matrix(-0.5829 0.8125 -0.8125 -0.5829 846.5441 242.7697)">
							<stop  offset="0" style="stop-color:#000000;stop-opacity:0"/>
							<stop  offset="0.9951" style="stop-color:#FFFFFF"/>
						</linearGradient>
						<polygon style="opacity:0.3;fill:url(#SVGID_00000150090068983616733040000007014757754477730211_);" points="808.04,75.61 
							755.64,-6.54 602.95,-6.54 608.74,28.38 808.04,171.36 						"/>
						
							<linearGradient id="SVGID_00000164476965382189460840000009786035165184068484_" gradientUnits="userSpaceOnUse" x1="-31.6953" y1="553.1332" x2="303.9501" y2="553.1332" gradientTransform="matrix(-0.5829 0.8125 -0.8125 -0.5829 846.5441 242.7697)">
							<stop  offset="0" style="stop-color:#000000;stop-opacity:0"/>
							<stop  offset="0.9951" style="stop-color:#FFFFFF"/>
						</linearGradient>
						<polygon style="opacity:0.5;fill:url(#SVGID_00000164476965382189460840000009786035165184068484_);" points="188.92,-6.54 
							243.79,184.41 425.95,97.27 346.47,-6.54 						"/>
						
							<linearGradient id="SVGID_00000021808527026022720850000002324092848525575095_" gradientUnits="userSpaceOnUse" x1="453.3971" y1="71.8386" x2="710.0258" y2="71.8386" gradientTransform="matrix(-0.5829 0.8125 -0.8125 -0.5829 846.5441 242.7697)">
							<stop  offset="0" style="stop-color:#000000;stop-opacity:0"/>
							<stop  offset="0.9951" style="stop-color:#FFFFFF"/>
						</linearGradient>
						<polygon style="fill:url(#SVGID_00000021808527026022720850000002324092848525575095_);" points="590.43,806.54 
							367.58,457.14 326.76,691.18 463.32,806.54 						"/>
						
							<linearGradient id="SVGID_00000053544174727946806650000004752094082117873336_" gradientUnits="userSpaceOnUse" x1="346.7526" y1="-170.0314" x2="603.3782" y2="-170.0314" gradientTransform="matrix(-0.5829 0.8125 -0.8125 -0.5829 846.5441 242.7697)">
							<stop  offset="0" style="stop-color:#000000;stop-opacity:0"/>
							<stop  offset="0.9951" style="stop-color:#FFFFFF"/>
						</linearGradient>
						<polygon style="fill:url(#SVGID_00000053544174727946806650000004752094082117873336_);" points="808.04,751.53 679.12,549.4 
							640.32,806.54 808.04,806.54 						"/>
						
							<linearGradient id="SVGID_00000115515951492640399040000014836387987066599842_" gradientUnits="userSpaceOnUse" x1="273.0551" y1="-283.0088" x2="727.6587" y2="-283.0088" gradientTransform="matrix(-0.5829 0.8125 -0.8125 -0.5829 846.5441 242.7697)">
							<stop  offset="0" style="stop-color:#000000;stop-opacity:0"/>
							<stop  offset="0.9951" style="stop-color:#FFFFFF"/>
						</linearGradient>
						<polygon style="opacity:0.2;fill:url(#SVGID_00000115515951492640399040000014836387987066599842_);" points="808.04,783.88 
							782.28,793.21 784.67,806.54 808.04,806.54 						"/>
						
							<linearGradient id="SVGID_00000022558962188505979200000003723690136618178226_" gradientUnits="userSpaceOnUse" x1="273.0557" y1="-80.8939" x2="484.7282" y2="-80.8939" gradientTransform="matrix(-0.5829 0.8125 -0.8125 -0.5829 846.5441 242.7697)">
							<stop  offset="0" style="stop-color:#000000;stop-opacity:0"/>
							<stop  offset="0.9951" style="stop-color:#FFFFFF"/>
						</linearGradient>
						<polygon style="opacity:0.2;fill:url(#SVGID_00000022558962188505979200000003723690136618178226_);" points="808.04,646.48 
							472.56,554.16 782.28,793.21 808.04,783.88 						"/>
						
							<linearGradient id="SVGID_00000031929815372836447850000003600621818565160097_" gradientUnits="userSpaceOnUse" x1="244.7695" y1="-40.848" x2="471.0328" y2="-40.848" gradientTransform="matrix(-0.5829 0.8125 -0.8125 -0.5829 846.5441 242.7697)">
							<stop  offset="0" style="stop-color:#000000;stop-opacity:0"/>
							<stop  offset="0.9951" style="stop-color:#FFFFFF"/>
						</linearGradient>
						<polygon style="opacity:0.2;fill:url(#SVGID_00000031929815372836447850000003600621818565160097_);" points="808.04,516.97 
							804.29,513.69 472.56,554.16 808.04,646.48 						"/>
						
							<linearGradient id="SVGID_00000001630139844157155150000013407773363989028788_" gradientUnits="userSpaceOnUse" x1="-234.0984" y1="126.1531" x2="32.4209" y2="126.1531" gradientTransform="matrix(-0.5829 0.8125 -0.8125 -0.5829 846.5441 242.7697)">
							<stop  offset="0" style="stop-color:#000000;stop-opacity:0"/>
							<stop  offset="0.9951" style="stop-color:#FFFFFF"/>
						</linearGradient>
						<polygon style="opacity:0.2;fill:url(#SVGID_00000001630139844157155150000013407773363989028788_);" points="808.04,38.69 
							793.73,-6.54 757.6,-6.54 754.22,216.43 808.04,236.91 						"/>
					</g>
				</g>
				<g>
					
						<linearGradient id="SVGID_00000061473976379240443040000005229402986504496778_" gradientUnits="userSpaceOnUse" x1="315.1313" y1="299.7371" x2="1012.1476" y2="299.7371" gradientTransform="matrix(-0.5829 0.8125 -0.8125 -0.5829 846.5441 242.7697)">
						<stop  offset="0" style="stop-color:#000000;stop-opacity:0"/>
						<stop  offset="0.9951" style="stop-color:#FFFFFF"/>
					</linearGradient>
					<polygon style="opacity:0.2;fill:url(#SVGID_00000061473976379240443040000005229402986504496778_);" points="178.29,806.54 
						397.12,308.17 147.42,556.61 124.69,806.54 					"/>
					
						<linearGradient id="SVGID_00000013179193175240294230000009201389487293123766_" gradientUnits="userSpaceOnUse" x1="-234.3289" y1="382.7361" x2="111.38" y2="382.7361" gradientTransform="matrix(-0.5829 0.8125 -0.8125 -0.5829 846.5441 242.7697)">
						<stop  offset="0" style="stop-color:#000000;stop-opacity:0"/>
						<stop  offset="0.9951" style="stop-color:#FFFFFF"/>
					</linearGradient>
					<polygon style="opacity:0.2;fill:url(#SVGID_00000013179193175240294230000009201389487293123766_);" points="476.79,-6.54 
						409.93,66.61 646.35,-6.54 					"/>
					
						<linearGradient id="SVGID_00000097486105940413897540000015829457562252842886_" gradientUnits="userSpaceOnUse" x1="-234.3321" y1="494.4703" x2="111.3798" y2="494.4703" gradientTransform="matrix(-0.5829 0.8125 -0.8125 -0.5829 846.5441 242.7697)">
						<stop  offset="0" style="stop-color:#000000;stop-opacity:0"/>
						<stop  offset="0.9951" style="stop-color:#FFFFFF"/>
					</linearGradient>
					<polygon style="opacity:0.2;fill:url(#SVGID_00000097486105940413897540000015829457562252842886_);" points="371.33,-6.54 
						409.93,66.61 422.83,-6.54 					"/>
					
						<linearGradient id="SVGID_00000099635295270255633070000008833005599867653023_" gradientUnits="userSpaceOnUse" x1="168.9362" y1="511.1628" x2="682.1364" y2="511.1628" gradientTransform="matrix(0.1567 0.9877 -0.9877 0.1567 521.0853 -220.8155)">
						<stop  offset="0" style="stop-color:#000000;stop-opacity:0"/>
						<stop  offset="0.9951" style="stop-color:#FFFFFF"/>
					</linearGradient>
					<polygon style="opacity:0.3;fill:url(#SVGID_00000099635295270255633070000008833005599867653023_);" points="-8.04,157.44 
						-8.04,367.41 225.39,516.8 					"/>
					
						<linearGradient id="SVGID_00000099660963396407849520000017443090021693835142_" gradientUnits="userSpaceOnUse" x1="-313.1742" y1="243.1714" x2="200.066" y2="243.1714" gradientTransform="matrix(-0.5829 0.8125 -0.8125 -0.5829 846.5441 242.7697)">
						<stop  offset="0" style="stop-color:#000000;stop-opacity:0"/>
						<stop  offset="0.9951" style="stop-color:#FFFFFF"/>
					</linearGradient>
					<polygon style="opacity:0.3;fill:url(#SVGID_00000099660963396407849520000017443090021693835142_);" points="585.57,-6.54 
						557.9,32.03 625.15,330.16 694.65,-6.54 					"/>
					
						<linearGradient id="SVGID_00000017494225754003463160000001258916373582294186_" gradientUnits="userSpaceOnUse" x1="430.6257" y1="397.8749" x2="943.863" y2="397.8749" gradientTransform="matrix(-0.5829 0.8125 -0.8125 -0.5829 846.5441 242.7697)">
						<stop  offset="0" style="stop-color:#000000;stop-opacity:0"/>
						<stop  offset="0.9951" style="stop-color:#FFFFFF"/>
					</linearGradient>
					<polygon style="opacity:0.6;fill:url(#SVGID_00000017494225754003463160000001258916373582294186_);" points="82.02,806.54 
						186.71,299.36 5.89,551.39 63.45,806.54 					"/>
					
						<linearGradient id="SVGID_00000079452987585468159310000012695612308653558952_" gradientUnits="userSpaceOnUse" x1="480.2152" y1="90.078" x2="993.4531" y2="90.078" gradientTransform="matrix(-0.5829 0.8125 -0.8125 -0.5829 846.5441 242.7697)">
						<stop  offset="3.410680e-03" style="stop-color:#000000;stop-opacity:0.9"/>
						<stop  offset="0.9951" style="stop-color:#FFFFFF"/>
					</linearGradient>
					<polygon style="opacity:0.3;fill:url(#SVGID_00000079452987585468159310000012695612308653558952_);" points="396.95,806.54 
						450.05,549.31 269.23,801.34 270.41,806.54 					"/>
				</g>
			</g>
			
				<linearGradient id="SVGID_00000166661711836577457400000015348942857007135132_" gradientUnits="userSpaceOnUse" x1="-116.4935" y1="216.9887" x2="115.7582" y2="216.9887" gradientTransform="matrix(-0.5829 0.8125 -0.8125 -0.5829 846.5441 242.7697)">
				<stop  offset="0" style="stop-color:#000000;stop-opacity:0"/>
				<stop  offset="0.9951" style="stop-color:#FFFFFF"/>
			</linearGradient>
			
				<line style="opacity:0.7;fill:url(#SVGID_00000166661711836577457400000015348942857007135132_);" x1="602.76" y1="210.34" x2="738.15" y2="21.64"/>
		</g>
		<rect y="-0.19" class="st64" width="800" height="800.37"/>
	</g>
</g>
<g id="Objects">
	<g class="st65">
		<path class="st66" d="M85.85,510.93c12.6,0,24.8-10.15,29.79-52.16H56.06C60.14,499.57,73.25,510.93,85.85,510.93z"/>
		<path class="st66" d="M231.62,491.85l-0.87,2.43c-0.74-0.27-1.48-0.51-2.22-0.74c-0.89,1.29-1.74,2.62-2.53,3.98
			c1.08,0.3,2.15,0.64,3.22,1.02l-0.87,2.43l-0.87,2.43c-1.31-0.47-2.63-0.86-3.96-1.2c-0.87,1.83-1.65,3.71-2.35,5.64
			c1.43,0.32,2.85,0.73,4.26,1.24l-0.88,2.43l-0.87,2.43c-1.35-0.48-2.71-0.85-4.07-1.14c-0.34,1.29-0.65,2.59-0.91,3.91h5.81
			c5.59-25.45,28.3-44.55,55.4-44.55c27.1,0,49.81,19.11,55.4,44.55h5.81c-0.17-0.84-0.35-1.67-0.55-2.5
			c-1.28,0.27-2.55,0.61-3.82,1.05l-0.84-2.41l-0.84-2.4c1.36-0.47,2.73-0.85,4.1-1.16c-0.63-1.91-1.36-3.78-2.16-5.6
			c-1.3,0.32-2.6,0.69-3.89,1.14l-0.84-2.41l-0.84-2.4c1.09-0.38,2.18-0.71,3.27-1c-1.02-1.86-2.13-3.67-3.33-5.41
			c-1.18,0.32-2.36,0.67-3.53,1.08l-0.84-2.4l-0.84-2.41c0.64-0.22,1.28-0.42,1.93-0.62c-11.46-13.89-28.79-22.76-48.16-22.77h0h0
			c-19.34,0-36.65,8.85-48.11,22.71c0.23,0.08,0.46,0.15,0.68,0.23L231.62,491.85z"/>
		<path class="st66" d="M279.92,477.12L279.92,477.12L279.92,477.12c-24.35,0-44.81,16.9-50.31,39.59h5.86
			c5.36-19.52,23.25-33.91,44.45-33.91c21.2,0,39.09,14.39,44.45,33.91h5.86C324.73,494.02,304.27,477.12,279.92,477.12z"/>
		<path class="st66" d="M279.92,489.41L279.92,489.41L279.92,489.41c-17.52,0-32.4,11.47-37.54,27.3h6.02
			c4.9-12.63,17.18-21.62,31.52-21.62c14.34,0,26.62,8.99,31.52,21.62h6.02C312.31,500.89,297.44,489.41,279.92,489.41z"/>
		<path class="st66" d="M228.52,493.54c0.74,0.23,1.48,0.48,2.22,0.74l0.87-2.43l0.87-2.43c-0.22-0.08-0.45-0.15-0.68-0.23
			c-26.89-9.27-56.18,2.87-68.97,27.52h5.92C180.71,496.39,205.42,486.4,228.52,493.54z"/>
		<path class="st66" d="M223.52,502.2c1.33,0.33,2.65,0.72,3.96,1.2l0.87-2.43l0.87-2.43c-1.07-0.38-2.15-0.72-3.22-1.02
			c-19.85-5.57-40.77,2.54-51.91,19.19h6.41C190.57,504.12,207.36,498.14,223.52,502.2z"/>
		<path class="st66" d="M219.62,512.8c1.36,0.29,2.72,0.66,4.07,1.14l0.87-2.43l0.88-2.43c-1.41-0.51-2.84-0.91-4.26-1.24
			c-11.83-2.67-23.96,0.91-32.48,8.87h8.48C203.73,512.68,211.74,511.14,219.62,512.8z"/>
		<path class="st66" d="M327,492.28l0.84,2.4c1.17-0.41,2.35-0.76,3.53-1.08c22.23-6.02,45.56,3.75,57.09,23.1h5.84
			c-12.39-23.6-40.21-35.52-66.21-27.46c-0.64,0.2-1.29,0.4-1.93,0.62L327,492.28z"/>
		<path class="st66" d="M334.7,499.01c-1.09,0.3-2.18,0.62-3.27,1l0.84,2.4l0.84,2.41c1.29-0.45,2.59-0.83,3.89-1.14
			c15.26-3.72,31.02,1.63,40.98,13.02h6.51C373.4,501.35,353.61,493.91,334.7,499.01z"/>
		<path class="st66" d="M339.17,509.29c-1.37,0.3-2.74,0.68-4.1,1.16l0.84,2.4l0.84,2.41c1.27-0.44,2.54-0.79,3.82-1.05
			c6.8-1.42,13.69-0.43,19.63,2.5h9.3C361.27,509.86,350.11,506.88,339.17,509.29z"/>
		<path class="st66" d="M803.94,571.8l-308.1,0.02l-1.93-88c7.92-2.39,13.35-9.64,13.35-18.01v-27.99c0-3.06-2.49-5.55-5.55-5.55
			c-0.11,0-0.23,0.01-0.34,0.02l-0.04,0c-2.9,0.19-5.17,2.62-5.17,5.53l-0.01,20.97c0,1.8-0.61,2.71-1.81,2.71
			c-1.19,0-1.8-0.91-1.8-2.71v-21.41c0-2.81-2.29-5.1-5.1-5.1c-2.81,0-5.1,2.29-5.1,5.1v21.41c0,1.8-0.61,2.71-1.82,2.71
			c-1.19,0-1.8-0.91-1.8-2.71l0-20.97c0-2.9-2.27-5.33-5.16-5.53l-0.04,0c-0.11-0.01-0.23-0.02-0.34-0.02
			c-3.06,0-5.55,2.49-5.55,5.55l0.01,2.2v15.29l0,0.12c0,0.11-0.01,0.23-0.01,0.35v10.04c0,8.37,5.43,15.62,13.35,18.01l-1.93,88
			h-31.49l-1.92-87.26c8.97-2.57,13.34-11,13.34-25.72c0-6.74-2.3-13.36-6.48-18.66c-3.91-4.95-8.9-7.9-13.34-7.9
			c-9.17,0-19.82,11.6-19.82,26.56c0,14.07,4.61,22.91,13.34,25.64l-1.92,87.35h-80.67c32.72-12.02,52.07-31.39,52.07-52.45
			c0-0.12-0.01-0.24-0.02-0.35c-0.16-1.3-1.27-2.31-2.62-2.31h-5.21h-5.84h-3.96h-6.51h-8.48h-9.3h-19.08h-5.81h-5.1h-5.86h-6.9
			h-6.02H248.4h-6.02h-6.91h-5.86h-5.1h-5.81h-21.54h-8.48h-8.2h-6.41h-5.33h-5.92h-6.67c-1.4,0-2.54,1.09-2.63,2.47
			c0,0.06-0.01,0.13-0.01,0.2c0,21.07,19.35,40.43,52.07,52.45H91.29l-0.15-48.45c0.48-0.09,0.95-0.17,1.42-0.28
			c25.91-5.73,38.05-45.67,38.05-124.45v-2.41h0H40.83v2.41c0,78.78,12.15,118.72,38.06,124.45c1.11,0.25,2.24,0.44,3.39,0.56
			l-0.02,48.17H-3.5c-1.64,0-2.98,1.33-2.98,2.98s1.33,2.98,2.98,2.98h64.27c0.16,0.01,0.33,0.02,0.5,0.02h48.91
			c0.17,0,0.33-0.01,0.5-0.02h96.75c0.59,0,1.13-0.18,1.59-0.47c0,0,0,0,0,0l0.01-0.01c0.32-0.2,0.6-0.47,0.82-0.78l3.16-3.01h-0.1
			c0.08-0.04,0.15-0.09,0.23-0.13l0.87-0.94c0.19-0.34,0.31-0.73,0.33-1.14c0.06-1.18-0.68-2.26-1.81-2.63
			c-32.15-10.59-51.92-27.89-53.6-46.68h1.51h5.62h4.98h5.86h7.16h6.66h27.18h5.72h5h5.72h6.72h5.77h66.18h5.77h6.72h5.72h5h5.73
			h25.82h6.88h7.26h5.9h3.38h5.55h0.03c0,0.02-0.01,0.04-0.01,0.06c-0.08,0.91-0.22,1.82-0.39,2.72
			c-3.29,17.71-22.65,33.84-53.21,43.91c-1.13,0.37-1.87,1.45-1.81,2.63c0.02,0.48,0.18,0.93,0.43,1.31c0,0,4.34,5.17,4.82,5.17
			h85.84c0.7,0,1.26-1.33,1.26-2.98c0-0.48-0.05-0.93-0.14-1.33l0.14-6.3l0.17-7.79l1.69-77.08l-1.11-0.27
			c-8.15-2-12.28-9.8-12.28-23.19c0-13.14,9.29-23.72,16.98-23.72c6.84,0,16.98,9.96,16.98,23.72c0,13.99-3.89,21.38-12.25,23.24
			l-1.14,0.25l1.69,77.05l0.17,7.79l0.12,5.72c-0.08,0.52-0.12,1.18-0.12,1.9c0,1.65,0.24,2.98,0.53,2.98h36.17
			c0.29,0,0.53-1.33,0.53-2.98c0-0.16,0-0.32-0.01-0.47l0.04-0.04c-0.02-0.12-0.03-0.24-0.03-0.37l0.15-6.76l0.07-1.94l0.1-3.83
			l0-2.03l1.7-77.75l-1.12-0.27c-7.23-1.71-12.28-8.1-12.28-15.54v-10.04c0-0.08,0-0.17,0-0.25l0-16.93l-0.01-0.92
			c0.08-1.42,1.26-2.56,2.7-2.56c0.05,0,0.09,0.01,0.13,0.01l0.06,0c1.41,0.1,2.52,1.28,2.52,2.7l0,20.97
			c0,3.43,1.78,5.56,4.64,5.56c2.83,0,4.66-2.18,4.66-5.56v-21.41c0-1.25,1.01-2.26,2.26-2.26c1.25,0,2.26,1.01,2.26,2.26v21.41
			c0,3.42,1.78,5.55,4.64,5.55c2.83,0,4.66-2.18,4.66-5.55l0.01-20.97c0-1.42,1.11-2.6,2.53-2.7l0.05,0c0.04,0,0.08-0.01,0.12-0.01
			c1.49,0,2.71,1.21,2.71,2.71v27.99c0,7.44-5.05,13.83-12.28,15.54l-1.12,0.27l1.7,77.75l-0.04,2.79l0.07,2.05l0.14,2.95l0.15,6.73
			c0,0.03-0.01,0.06-0.01,0.1c0,0-0.09,3.93,0.68,3.78l310.36,0.15c0.29,0-0.11-0.72-0.11-2.37
			C803.97,572.71,804.24,571.8,803.94,571.8z M60.77,498.96c-0.66-1.34-1.28-2.81-1.87-4.4c-7.65-19.56-11.6-49.07-11.74-91.81
			h77.11c-0.14,42.7-4.08,72.2-11.72,91.76c-0.59,1.63-1.24,3.13-1.91,4.5c-6.21,13.32-14.53,20.03-24.93,20.03
			C75.31,519.03,66.98,512.3,60.77,498.96z"/>
	</g>
</g>
</svg>
